<svg width="34" height="34" viewBox="0 0 34 34" fill="none" xmlns="http://www.w3.org/2000/svg">
<path d="M5 6H27V27H5V6Z" fill="white"/>
<path d="M16.588 0C7.427 0 0 7.42698 0 16.588C0 25.749 7.427 33.176 16.588 33.176C25.749 33.176 33.176 25.749 33.176 16.588C33.176 7.42698 25.749 0 16.588 0ZM26.643 20.602C26.643 23.933 23.933 26.642 20.603 26.642H12.575C9.244 26.642 6.535 23.932 6.535 20.602V12.573C6.535 9.242 9.245 6.53299 12.575 6.53299H20.603C23.934 6.53299 26.643 9.242 26.643 12.573V20.602ZM19.843 16.588C19.843 18.337 18.42 19.76 16.671 19.76C14.922 19.76 13.499 18.337 13.499 16.588C13.499 14.839 14.922 13.416 16.671 13.416C18.42 13.416 19.843 14.839 19.843 16.588ZM20.602 8.42499H12.574C10.286 8.42499 8.42599 10.286 8.42599 12.573V20.602C8.42599 22.89 10.287 24.75 12.574 24.75H20.602C22.889 24.75 24.751 22.889 24.751 20.602V12.573C24.751 10.286 22.89 8.42499 20.602 8.42499ZM16.671 21.54C13.94 21.54 11.719 19.318 11.719 16.588C11.719 13.857 13.941 11.636 16.671 11.636C19.402 11.636 21.623 13.857 21.623 16.588C21.623 19.318 19.401 21.54 16.671 21.54ZM21.912 12.482C21.261 12.482 20.733 11.954 20.733 11.303C20.733 10.652 21.261 10.124 21.912 10.124C22.563 10.124 23.091 10.652 23.091 11.303C23.091 11.954 22.563 12.482 21.912 12.482Z" fill="url(#paint0_linear_406_4976)"/>
<defs>
<linearGradient id="paint0_linear_406_4976" x1="4.8589" y1="4.8589" x2="28.3176" y2="28.3177" gradientUnits="userSpaceOnUse">
<stop offset="0.0011" stop-color="#FFE185"/>
<stop offset="0.2094" stop-color="#FFBB36"/>
<stop offset="0.3765" stop-color="#FF5176"/>
<stop offset="0.5238" stop-color="#F63395"/>
<stop offset="0.7394" stop-color="#A436D2"/>
<stop offset="1" stop-color="#5F4EED"/>
</linearGradient>
</defs>
</svg>
