<svg width="34" height="35" viewBox="0 0 34 35" fill="none" xmlns="http://www.w3.org/2000/svg">
<path d="M17.116 34.0217C26.277 34.0217 33.704 26.5947 33.704 17.4337C33.704 8.27269 26.277 0.845703 17.116 0.845703C7.955 0.845703 0.527985 8.27269 0.527985 17.4337C0.527985 26.5947 7.955 34.0217 17.116 34.0217Z" fill="#2CB5E5"/>
<path d="M7.43198 17.2899C7.43198 17.2899 15.726 13.8859 18.602 12.6879C19.705 12.2089 23.444 10.6739 23.444 10.6739C23.444 10.6739 25.17 10.0029 25.026 11.6329C24.978 12.3039 24.594 14.6529 24.211 17.1939C23.636 20.7899 23.012 24.7209 23.012 24.7209C23.012 24.7209 22.916 25.8239 22.101 26.0149C21.286 26.2069 19.944 25.3439 19.704 25.1519C19.512 25.0079 16.108 22.8509 14.862 21.7959C14.526 21.5079 14.143 20.9329 14.91 20.2619C16.636 18.6799 18.697 16.7139 19.944 15.4679C20.519 14.8929 21.095 13.5499 18.698 15.1799C15.294 17.5289 11.938 19.7349 11.938 19.7349C11.938 19.7349 11.171 20.2139 9.733 19.7829C8.295 19.3519 6.61697 18.7759 6.61697 18.7759C6.61697 18.7759 5.46598 18.0579 7.43198 17.2899Z" fill="white"/>
</svg>
