<svg width="34" height="34" viewBox="0 0 34 34" fill="none" xmlns="http://www.w3.org/2000/svg">
<path d="M17.0931 33.6239C8.04159 33.6239 0.70401 26.2863 0.70401 17.2348C0.70401 8.18329 8.04159 0.845703 17.0931 0.845703C26.1446 0.845703 33.4822 8.18329 33.4822 17.2348C33.4822 26.2863 26.1446 33.6239 17.0931 33.6239Z" fill="#7360F2"/>
<path d="M25.1158 8.43991C24.5727 7.93877 22.3784 6.34575 17.4905 6.32426C17.4905 6.32426 11.7262 5.97681 8.91641 8.55427C7.35216 10.1189 6.80185 12.4079 6.74394 15.2461C6.68603 18.0844 6.61064 23.4032 11.7379 24.8454H11.743L11.7393 27.0459C11.7393 27.0459 11.7066 27.9368 12.2933 28.1185C13.0028 28.3388 13.4194 27.6618 14.0968 26.9319C14.4687 26.5313 14.9822 25.9428 15.369 25.4926C18.8755 25.7876 21.5721 25.1131 21.8784 25.0137C22.5864 24.7842 26.5926 24.2707 27.2442 18.9522C27.9168 13.4703 26.9189 10.0027 25.1158 8.43991ZM25.7101 18.5589C25.1602 22.9996 21.9108 23.2786 21.3117 23.4709C21.0567 23.5529 18.6883 24.1421 15.7099 23.9476C15.7099 23.9476 13.4904 26.6253 12.7973 27.3213C12.6892 27.4302 12.5621 27.4742 12.4768 27.4524C12.3574 27.4232 12.3246 27.2819 12.3261 27.0754C12.3279 26.7804 12.345 23.4185 12.345 23.4185C8.00809 22.2144 8.26084 17.6874 8.31001 15.3168C8.35918 12.9462 8.8046 11.0043 10.1274 9.69823C12.5042 7.54543 17.4001 7.86702 17.4001 7.86702C21.5349 7.88523 23.5162 9.13008 23.9754 9.54745C25.5011 10.8535 26.2779 13.9791 25.7098 18.5578V18.5589H25.7101Z" fill="white"/>
<path d="M19.5023 15.3987C19.3559 15.3987 19.2339 15.2836 19.2266 15.1361C19.18 14.1969 18.7382 13.7376 17.8361 13.6902C17.6835 13.6822 17.5666 13.5522 17.5746 13.3996C17.5826 13.247 17.7119 13.1297 17.8652 13.1381C19.0562 13.2004 19.7179 13.8818 19.7791 15.1085C19.7868 15.2611 19.6691 15.3907 19.5169 15.3984C19.5114 15.3987 19.5071 15.3987 19.5023 15.3987Z" fill="white"/>
<path d="M20.9209 15.8739C20.9187 15.8739 20.9169 15.8739 20.9147 15.8739C20.7621 15.8707 20.6408 15.7443 20.6444 15.5917C20.6648 14.6469 20.395 13.8818 19.8195 13.2528C19.2444 12.6253 18.4567 12.2829 17.4111 12.2064C17.2588 12.1951 17.1445 12.0629 17.1554 11.9107C17.1667 11.7585 17.2996 11.6441 17.4511 11.655C18.6275 11.741 19.5613 12.1532 20.2271 12.8795C20.8943 13.6082 21.2206 14.5249 21.1969 15.6037C21.194 15.7541 21.0709 15.8739 20.9209 15.8739Z" fill="white"/>
<path d="M22.373 16.4424C22.2211 16.4424 22.0976 16.32 22.0965 16.1681C22.0838 14.5001 21.5834 13.1729 20.6088 12.2231C19.6323 11.2714 18.3988 10.7838 16.942 10.7736C16.7894 10.7725 16.6663 10.6479 16.6674 10.4953C16.6685 10.3434 16.7919 10.2207 16.9438 10.2207C16.9445 10.2207 16.9456 10.2207 16.9456 10.2207C18.5503 10.232 19.9124 10.7725 20.9945 11.8272C22.0783 12.8841 22.6352 14.3431 22.649 16.1641C22.6501 16.3167 22.5274 16.4416 22.3748 16.4427C22.3748 16.4427 22.3737 16.4424 22.373 16.4424Z" fill="white"/>
<path d="M17.9053 18.8247C17.9053 18.8247 18.2939 18.8575 18.5029 18.5997L18.9108 18.0865C19.1075 17.8319 19.5824 17.6699 20.0475 17.9288C20.3961 18.1277 20.7344 18.3436 21.0611 18.576C21.3696 18.8029 22.0015 19.3303 22.0036 19.3303C22.3048 19.5845 22.374 19.9574 22.1694 20.3511C22.1694 20.3533 22.1675 20.3573 22.1675 20.3595C21.9417 20.7506 21.6551 21.1036 21.3186 21.4048C21.3146 21.4066 21.3146 21.4088 21.3109 21.4106C21.0185 21.655 20.7311 21.7941 20.4489 21.8272C20.4073 21.8345 20.3651 21.8371 20.3228 21.8352C20.1983 21.8363 20.0745 21.8174 19.9561 21.7788L19.947 21.7653C19.5121 21.6426 18.7863 21.3359 17.5771 20.6687C16.8775 20.2874 16.2114 19.8474 15.586 19.3536C15.2725 19.1063 14.9734 18.8411 14.6905 18.5592L14.6602 18.529L14.63 18.4988L14.5998 18.4686C14.5896 18.4587 14.5797 18.4485 14.5695 18.4383C14.288 18.1553 14.0229 17.8563 13.7752 17.5428C13.2814 16.9174 12.8414 16.2513 12.4601 15.552C11.7932 14.3425 11.4862 13.6174 11.3635 13.1818L11.35 13.1727C11.3114 13.0543 11.2925 12.9305 11.2939 12.8059C11.2917 12.7637 11.2943 12.7214 11.3016 12.6799C11.3369 12.398 11.476 12.1107 11.7189 11.8171C11.7208 11.8135 11.7229 11.8135 11.7248 11.8095C12.026 11.473 12.3789 11.1863 12.77 10.9609C12.7718 10.9609 12.7758 10.9591 12.7784 10.9591C13.1717 10.754 13.545 10.8236 13.7989 11.123C13.8007 11.1248 14.3274 11.7567 14.5532 12.0655C14.7859 12.3926 15.0019 12.7313 15.2003 13.0802C15.4593 13.5449 15.2972 14.0206 15.0426 14.2169L14.5295 14.6248C14.2705 14.8338 14.3044 15.2224 14.3044 15.2224C14.3044 15.2224 15.0652 18.1 17.9053 18.8247Z" fill="white"/>
</svg>
