<svg width="34" height="34" viewBox="0 0 34 34" fill="none" xmlns="http://www.w3.org/2000/svg">
<path d="M4 7H29V26H4V7Z" fill="white"/>
<path d="M20.584 17.012L15.126 19.712C14.912 19.828 14.185 19.673 14.185 19.429V13.886C14.185 13.64 14.918 13.485 15.132 13.607L20.356 16.45C20.576 16.576 20.805 16.892 20.584 17.012ZM33.176 16.588C33.176 25.749 25.749 33.176 16.588 33.176C7.42698 33.176 0 25.749 0 16.588C0 7.42698 7.42698 0 16.588 0C25.749 0 33.176 7.42698 33.176 16.588ZM27.742 13.756C27.742 11.127 25.611 8.996 22.982 8.996H10.811C8.182 8.996 6.05099 11.127 6.05099 13.756V19.42C6.05099 22.049 8.182 24.18 10.811 24.18H22.982C25.611 24.18 27.742 22.049 27.742 19.42V13.756Z" fill="url(#paint0_linear_406_4974)"/>
<defs>
<linearGradient id="paint0_linear_406_4974" x1="28.3177" y1="28.3176" x2="4.859" y2="4.859" gradientUnits="userSpaceOnUse">
<stop stop-color="#FF0000"/>
<stop offset="1" stop-color="#9B0000"/>
</linearGradient>
</defs>
</svg>
