<svg width="102" height="98" viewBox="0 0 102 98" fill="none" xmlns="http://www.w3.org/2000/svg">
<g clip-path="url(#clip0_76_2730)">
<path d="M13.154 47.5975L11.8175 45.6616H10.3434V47.5975H8.73962V40.6494H11.7406C12.3562 40.6494 12.8867 40.7509 13.3403 40.9579C13.7939 41.1648 14.1421 41.453 14.3851 41.8304C14.6281 42.2079 14.7496 42.6543 14.7496 43.1697C14.7496 43.6852 14.6281 44.1316 14.377 44.505C14.13 44.8783 13.7777 45.1665 13.3241 45.3654L14.8792 47.5975H13.158H13.154ZM12.749 42.2728C12.4979 42.0658 12.1334 41.9603 11.6515 41.9603H10.3434V44.3832H11.6515C12.1334 44.3832 12.4979 44.2777 12.749 44.0666C13.0001 43.8556 13.1256 43.5553 13.1256 43.1738C13.1256 42.7923 13.0001 42.4838 12.749 42.2769V42.2728Z" fill="#00143D"/>
<path d="M21.3428 45.3657H17.3132C17.3861 45.6985 17.5562 45.9583 17.8275 46.149C18.0989 46.3398 18.435 46.4372 18.8359 46.4372C19.1113 46.4372 19.3584 46.3966 19.573 46.3114C19.7877 46.2302 19.9861 46.1003 20.1724 45.9177L20.9945 46.8106C20.4923 47.3869 19.7593 47.675 18.7954 47.675C18.1961 47.675 17.6615 47.5573 17.1998 47.3219C16.7381 47.0865 16.3817 46.7619 16.1306 46.3438C15.8795 45.9258 15.754 45.455 15.754 44.9234C15.754 44.3917 15.8795 43.929 16.1266 43.511C16.3736 43.093 16.7138 42.7643 17.1472 42.5289C17.5805 42.2935 18.0624 42.1758 18.597 42.1758C19.1316 42.1758 19.5892 42.2894 20.0145 42.5126C20.4356 42.7359 20.7677 43.0605 21.0107 43.4786C21.2537 43.8966 21.3712 44.3877 21.3712 44.9437C21.3712 44.964 21.359 45.1019 21.3428 45.3617V45.3657ZM17.7263 43.649C17.4873 43.8479 17.3415 44.1198 17.2889 44.4648H19.9132C19.8606 44.1279 19.7148 43.856 19.4758 43.6571C19.2369 43.4583 18.9493 43.3527 18.6051 43.3527C18.2609 43.3527 17.9612 43.4501 17.7222 43.649H17.7263Z" fill="#00143D"/>
<path d="M26.5509 42.7722C26.9924 43.1659 27.2151 43.7584 27.2151 44.5539V47.6018H25.7693V46.9362C25.4777 47.4314 24.9391 47.6789 24.1453 47.6789C23.7363 47.6789 23.3799 47.6099 23.0802 47.4719C22.7805 47.334 22.5497 47.1432 22.3917 46.8956C22.2338 46.6481 22.1528 46.3721 22.1528 46.0596C22.1528 45.5645 22.3391 45.1748 22.7117 44.8867C23.0842 44.6026 23.6593 44.4606 24.4409 44.4606H25.6681C25.6681 44.1237 25.5668 43.864 25.3603 43.6813C25.1537 43.4987 24.85 43.4094 24.4409 43.4094C24.1575 43.4094 23.878 43.454 23.6026 43.5433C23.3272 43.6326 23.0964 43.7544 22.906 43.9045L22.3512 42.8209C22.6428 42.618 22.9911 42.4557 23.3961 42.3461C23.8011 42.2324 24.2182 42.1797 24.6475 42.1797C25.4737 42.1797 26.1054 42.3786 26.5509 42.7682V42.7722ZM25.2347 46.4533C25.4413 46.3315 25.583 46.1489 25.6721 45.9135V45.3656H24.611C23.9752 45.3656 23.6593 45.5766 23.6593 45.9906C23.6593 46.1895 23.7363 46.3477 23.8942 46.4614C24.0481 46.5791 24.2628 46.6359 24.5341 46.6359C24.8054 46.6359 25.0322 46.575 25.2388 46.4533H25.2347Z" fill="#00143D"/>
<path d="M28.8594 40.2354H30.4024V47.6015H28.8594V40.2354Z" fill="#00143D"/>
<path d="M14.1057 55.8724V57.163H8.73962V50.2148H13.9802V51.5054H10.3353V53.0152H13.5549V54.2652H10.3353V55.8724H14.1098H14.1057Z" fill="#00143D"/>
<path d="M15.9767 57.0781C15.5556 56.9685 15.2194 56.8305 14.9683 56.6682L15.4827 55.5562C15.7216 55.7104 16.0091 55.8322 16.3453 55.9296C16.6814 56.027 17.0135 56.0716 17.3375 56.0716C17.9895 56.0716 18.3176 55.9093 18.3176 55.5846C18.3176 55.4304 18.2285 55.3248 18.0503 55.2558C17.8721 55.1909 17.5967 55.1341 17.2282 55.0854C16.7908 55.0205 16.4344 54.9433 16.1468 54.8581C15.8633 54.7729 15.6163 54.6187 15.4098 54.3995C15.2032 54.1804 15.0979 53.8719 15.0979 53.4661C15.0979 53.1292 15.1951 52.8289 15.3895 52.5691C15.5839 52.3094 15.8674 52.1024 16.24 51.9604C16.6126 51.8143 17.054 51.7412 17.5602 51.7412C17.9369 51.7412 18.3135 51.7818 18.6861 51.867C19.0587 51.9482 19.3665 52.0659 19.6135 52.2079L19.0992 53.3118C18.6294 53.048 18.1191 52.9141 17.5643 52.9141C17.2362 52.9141 16.9852 52.9588 16.8232 53.0521C16.6571 53.1454 16.5761 53.2631 16.5761 53.4092C16.5761 53.5756 16.6652 53.6893 16.8434 53.7583C17.0216 53.8232 17.3051 53.8881 17.6939 53.945C18.1313 54.018 18.4877 54.0951 18.7631 54.1763C19.0384 54.2575 19.2814 54.4117 19.4839 54.6268C19.6905 54.8459 19.7917 55.1503 19.7917 55.5399C19.7917 55.8687 19.6905 56.1649 19.4961 56.4247C19.3017 56.6844 19.0101 56.8833 18.6294 57.0253C18.2487 57.1674 17.7992 57.2364 17.2767 57.2364C16.8353 57.2364 16.402 57.1836 15.9808 57.074L15.9767 57.0781Z" fill="#00143D"/>
<path d="M24.4248 56.9037C24.2709 57.0173 24.0846 57.1025 23.8659 57.1553C23.6431 57.2121 23.4123 57.2405 23.1693 57.2405C22.5335 57.2405 22.0434 57.0782 21.6992 56.7535C21.3509 56.4288 21.1808 55.954 21.1808 55.3249V53.1334H20.3587V51.9442H21.1808V50.6455H22.7238V51.9442H24.0522V53.1334H22.7238V55.3087C22.7238 55.5319 22.7805 55.7064 22.898 55.8282C23.0114 55.9499 23.1774 56.0108 23.388 56.0108C23.631 56.0108 23.8416 55.9459 24.0117 55.8119L24.4288 56.9037H24.4248Z" fill="#00143D"/>
<path d="M29.5924 52.3337C30.0338 52.7274 30.2566 53.32 30.2566 54.1154V57.1633H28.8108V56.4977C28.5192 56.9929 27.9806 57.2404 27.1868 57.2404C26.7777 57.2404 26.4214 57.1715 26.1217 57.0335C25.822 56.8955 25.5911 56.7047 25.4332 56.4572C25.2752 56.2096 25.1942 55.9336 25.1942 55.6211C25.1942 55.126 25.3805 54.7364 25.7531 54.4482C26.1257 54.1641 26.7008 54.0221 27.4824 54.0221H28.7095C28.7095 53.6852 28.6083 53.4255 28.4017 53.2428C28.1952 53.0602 27.8915 52.9709 27.4824 52.9709C27.1989 52.9709 26.9195 53.0156 26.6441 53.1049C26.3687 53.1941 26.1379 53.3159 25.9475 53.4661L25.3927 52.3825C25.6843 52.1795 26.0326 52.0172 26.4376 51.9076C26.8425 51.794 27.2597 51.7412 27.689 51.7412C28.5151 51.7412 29.1469 51.9401 29.5924 52.3297V52.3337ZM28.2762 56.0148C28.4827 55.893 28.6245 55.7104 28.7136 55.475V54.9271H27.6525C27.0167 54.9271 26.7008 55.1382 26.7008 55.5521C26.7008 55.751 26.7777 55.9093 26.9357 56.0229C27.0896 56.1406 27.3042 56.1974 27.5756 56.1974C27.8469 56.1974 28.0737 56.1365 28.2802 56.0148H28.2762Z" fill="#00143D"/>
<path d="M35.3351 56.9037C35.1812 57.0173 34.9949 57.1025 34.7762 57.1553C34.5535 57.2121 34.3226 57.2405 34.0797 57.2405C33.4438 57.2405 32.9538 57.0782 32.6095 56.7535C32.2613 56.4288 32.0912 55.954 32.0912 55.3249V53.1334H31.269V51.9442H32.0912V50.6455H33.6342V51.9442H34.9625V53.1334H33.6342V55.3087C33.6342 55.5319 33.6909 55.7064 33.8083 55.8282C33.9217 55.9499 34.0878 56.0108 34.2983 56.0108C34.5413 56.0108 34.7519 55.9459 34.922 55.8119L35.3392 56.9037H35.3351Z" fill="#00143D"/>
<path d="M41.4788 54.9312H37.4492C37.5221 55.264 37.6921 55.5237 37.9635 55.7145C38.2348 55.9052 38.571 56.0026 38.9719 56.0026C39.2473 56.0026 39.4943 55.962 39.709 55.8768C39.9236 55.7956 40.1221 55.6658 40.3084 55.4831L41.1305 56.376C40.6283 56.9523 39.8953 57.2404 38.9314 57.2404C38.332 57.2404 37.7974 57.1227 37.3358 56.8874C36.8741 56.652 36.5177 56.3273 36.2666 55.9093C36.0155 55.4912 35.89 55.0205 35.89 54.4888C35.89 53.9571 36.0155 53.4945 36.2625 53.0764C36.5096 52.6584 36.8498 52.3297 37.2831 52.0943C37.7164 51.8589 38.1984 51.7412 38.733 51.7412C39.2675 51.7412 39.7252 51.8549 40.1504 52.0781C40.5716 52.3013 40.9037 52.626 41.1467 53.044C41.3897 53.462 41.5071 53.9531 41.5071 54.5091C41.5071 54.5294 41.495 54.6674 41.4788 54.9271V54.9312ZM37.8622 53.2144C37.6233 53.4133 37.4775 53.6852 37.4249 54.0302H40.0492C39.9965 53.6933 39.8507 53.4214 39.6118 53.2226C39.3728 53.0237 39.0853 52.9182 38.7411 52.9182C38.3968 52.9182 38.0971 53.0156 37.8582 53.2144H37.8622Z" fill="#00143D"/>
<path d="M14.7577 63.7464C14.9805 64.0427 15.0939 64.4039 15.0939 64.8341C15.0939 65.4428 14.859 65.9095 14.3851 66.2383C13.9113 66.567 13.2228 66.7294 12.3197 66.7294H8.73557V59.7812H12.1213C12.9677 59.7812 13.6157 59.9436 14.0692 60.2683C14.5228 60.5929 14.7456 61.0313 14.7456 61.5873C14.7456 61.9241 14.6646 62.2244 14.5026 62.4923C14.3406 62.7561 14.1138 62.9672 13.8222 63.1173C14.2191 63.2431 14.5269 63.4542 14.7537 63.7464H14.7577ZM10.3312 60.9947V62.6303H11.9269C12.3237 62.6303 12.6234 62.5613 12.83 62.4233C13.0365 62.2853 13.1378 62.0783 13.1378 61.8064C13.1378 61.5345 13.0365 61.3316 12.83 61.1977C12.6234 61.0637 12.3237 60.9947 11.9269 60.9947H10.3312ZM13.158 65.3129C13.3727 65.175 13.478 64.9599 13.478 64.6677C13.478 64.0913 13.0527 63.8032 12.2023 63.8032H10.3312V65.5199H12.2023C12.6234 65.5199 12.9434 65.4509 13.158 65.3129Z" fill="#00143D"/>
<path d="M21.8207 61.3887V66.7296H20.3546V66.0924C20.1481 66.3238 19.9051 66.5024 19.6216 66.6241C19.3381 66.7459 19.0303 66.8067 18.7023 66.8067C18.0017 66.8067 17.4468 66.6038 17.0378 66.202C16.6288 65.8002 16.4222 65.1996 16.4222 64.4041V61.3887H17.9652V64.1768C17.9652 65.0372 18.3256 65.4674 19.0465 65.4674C19.4151 65.4674 19.7148 65.3457 19.9375 65.1062C20.1602 64.8627 20.2736 64.5056 20.2736 64.0307V61.3927H21.8166L21.8207 61.3887Z" fill="#00143D"/>
<path d="M23.5014 59.3633H25.0444V66.7294H23.5014V59.3633Z" fill="#00143D"/>
<path d="M32.2289 61.3886V65.8367C32.2289 66.8148 31.9737 67.5413 31.4675 68.0202C30.9613 68.4991 30.2161 68.7345 29.2401 68.7345C28.7257 68.7345 28.2357 68.6736 27.774 68.5478C27.3123 68.422 26.9276 68.2393 26.6238 68.0039L27.2394 66.8919C27.4622 67.0786 27.7457 67.2247 28.0899 67.3343C28.4341 67.4439 28.7784 67.4966 29.1186 67.4966C29.6531 67.4966 30.046 67.3749 30.3011 67.1354C30.5563 66.896 30.6818 66.5307 30.6818 66.0396V65.8124C30.2768 66.2547 29.7179 66.478 28.9971 66.478C28.507 66.478 28.0615 66.3724 27.6566 66.1533C27.2516 65.9382 26.9276 65.6338 26.6927 65.2442C26.4578 64.8546 26.3363 64.4041 26.3363 63.8927C26.3363 63.3813 26.4538 62.9349 26.6927 62.5412C26.9316 62.1476 27.2516 61.8472 27.6566 61.6321C28.0615 61.417 28.5111 61.3115 28.9971 61.3115C29.7706 61.3115 30.3578 61.5672 30.7588 62.0745V61.3886H32.2248H32.2289ZM30.3133 64.8383C30.5725 64.5948 30.7061 64.2823 30.7061 63.8887C30.7061 63.495 30.5765 63.1825 30.3133 62.943C30.0541 62.6995 29.7179 62.5818 29.3089 62.5818C28.8999 62.5818 28.5637 62.7036 28.3005 62.943C28.0372 63.1825 27.9036 63.499 27.9036 63.8887C27.9036 64.2783 28.0372 64.5948 28.3005 64.8383C28.5637 65.0818 28.8999 65.1995 29.3089 65.1995C29.7179 65.1995 30.0541 65.0778 30.3133 64.8383Z" fill="#00143D"/>
<path d="M37.9594 61.9002C38.4009 62.2938 38.6236 62.8864 38.6236 63.6818V66.7297H37.1778V66.0642C36.8862 66.5593 36.3476 66.8069 35.5538 66.8069C35.1448 66.8069 34.7884 66.7379 34.4887 66.5999C34.189 66.4619 33.9582 66.2711 33.8002 66.0236C33.6423 65.776 33.5613 65.5 33.5613 65.1875C33.5613 64.6924 33.7476 64.3028 34.1202 64.0146C34.4927 63.7305 35.0678 63.5885 35.8495 63.5885H37.0766C37.0766 63.2516 36.9753 62.9919 36.7688 62.8093C36.5622 62.6266 36.2585 62.5373 35.8495 62.5373C35.566 62.5373 35.2865 62.582 35.0111 62.6713C34.7357 62.7606 34.5049 62.8823 34.3146 63.0325L33.7597 61.9489C34.0513 61.7459 34.3996 61.5836 34.8046 61.474C35.2096 61.3604 35.6267 61.3076 36.056 61.3076C36.8822 61.3076 37.514 61.5065 37.9594 61.8961V61.9002ZM36.6432 65.5812C36.8498 65.4594 36.9915 65.2768 37.0806 65.0414V64.4935H36.0195C35.3837 64.4935 35.0678 64.7046 35.0678 65.1185C35.0678 65.3174 35.1448 65.4757 35.3027 65.5893C35.4566 65.707 35.6713 65.7638 35.9426 65.7638C36.2139 65.7638 36.4407 65.7029 36.6473 65.5812H36.6432Z" fill="#00143D"/>
<path d="M42.4912 61.5065C42.8031 61.3766 43.1676 61.3076 43.5766 61.3076V62.7362C43.4065 62.724 43.2891 62.7159 43.2283 62.7159C42.7869 62.7159 42.4386 62.8377 42.1875 63.0893C41.9364 63.3369 41.8109 63.7102 41.8109 64.2054V66.7257H40.2679V61.3847H41.742V62.0909C41.9283 61.8312 42.1753 61.6364 42.4912 61.5065Z" fill="#00143D"/>
<path d="M44.8239 60.3943C44.6458 60.2279 44.5567 60.025 44.5567 59.7814C44.5567 59.5379 44.6458 59.331 44.8239 59.1646C45.0021 58.9982 45.233 58.917 45.5165 58.917C45.8 58.917 46.0308 58.9982 46.209 59.1564C46.3872 59.3147 46.4763 59.5136 46.4763 59.753C46.4763 60.0128 46.3872 60.2238 46.209 60.3943C46.0308 60.5647 45.8 60.6459 45.5165 60.6459C45.233 60.6459 45.0021 60.5647 44.8239 60.3983V60.3943ZM44.743 61.3886H46.286V66.7296H44.743V61.3886Z" fill="#00143D"/>
<path d="M52.0246 61.9002C52.4661 62.2938 52.6888 62.8864 52.6888 63.6818V66.7297H51.243V66.0642C50.9514 66.5593 50.4128 66.8069 49.619 66.8069C49.21 66.8069 48.8536 66.7379 48.5539 66.5999C48.2542 66.4619 48.0234 66.2711 47.8654 66.0236C47.7075 65.776 47.6265 65.5 47.6265 65.1875C47.6265 64.6924 47.8128 64.3028 48.1853 64.0146C48.5579 63.7305 49.133 63.5885 49.9146 63.5885H51.1418C51.1418 63.2516 51.0405 62.9919 50.834 62.8093C50.6274 62.6266 50.3237 62.5373 49.9146 62.5373C49.6312 62.5373 49.3517 62.582 49.0763 62.6713C48.8009 62.7606 48.5701 62.8823 48.3797 63.0325L47.8249 61.9489C48.1165 61.7459 48.4648 61.5836 48.8698 61.474C49.2748 61.3604 49.6919 61.3076 50.1212 61.3076C50.9474 61.3076 51.5791 61.5065 52.0246 61.8961V61.9002ZM50.7084 65.5812C50.915 65.4594 51.0567 65.2768 51.1458 65.0414V64.4935H50.0847C49.4489 64.4935 49.133 64.7046 49.133 65.1185C49.133 65.3174 49.21 65.4757 49.3679 65.5893C49.5218 65.707 49.7364 65.7638 50.0078 65.7638C50.2791 65.7638 50.5059 65.7029 50.7125 65.5812H50.7084Z" fill="#00143D"/>
<path d="M24.1615 18.0035C25.9313 16.6804 29.5033 14.7648 35.7846 14.2129C31.9494 15.4913 30.6251 19.1155 30.1634 21.3193C29.7868 20.3331 29.1266 19.4889 28.2438 18.868C27.8266 18.5758 27.373 18.3404 26.8911 18.178C25.9961 17.8736 25.0525 17.8249 24.1615 18.0035Z" fill="url(#paint0_linear_76_2730)"/>
<path d="M20.306 21.1202C20.221 18.9084 20.6705 14.8742 23.7768 9.375C22.655 13.263 24.8824 16.4124 26.4335 18.0439C25.4089 17.7963 24.3397 17.8613 23.3313 18.2387C22.8534 18.4173 22.4039 18.6608 21.9989 18.9652C21.2415 19.5334 20.6705 20.2801 20.306 21.1202Z" fill="url(#paint1_linear_76_2730)"/>
<path d="M20.7151 26.0103C18.8481 24.8293 15.7864 22.175 13.0203 16.4932C15.5839 19.6222 19.4353 19.5654 21.6546 19.2042C20.873 19.9104 20.3182 20.8276 20.059 21.8788C19.9375 22.3739 19.8808 22.8853 19.9011 23.3926C19.9375 24.3423 20.2331 25.2351 20.7151 26.0103Z" fill="url(#paint2_linear_76_2730)"/>
<path d="M24.7285 28.4863C22.655 29.2493 18.6901 30.0651 12.51 28.7988C16.5478 28.6689 18.8521 25.5764 19.9173 23.5918C19.9982 24.6429 20.3911 25.6413 21.0593 26.4895C21.3793 26.8913 21.7478 27.2444 22.1609 27.5366C22.9344 28.0845 23.8213 28.397 24.7285 28.4863Z" fill="url(#paint3_linear_76_2730)"/>
<path d="M25.255 27.8532C27.8137 27.8532 29.888 25.7745 29.888 23.2103C29.888 20.6461 27.8137 18.5674 25.255 18.5674C22.6962 18.5674 20.6219 20.6461 20.6219 23.2103C20.6219 25.7745 22.6962 27.8532 25.255 27.8532Z" fill="url(#paint4_linear_76_2730)"/>
<path d="M61.8253 43.2031C60.6022 45.0619 59.1362 46.7178 57.5851 48.2316C56.1676 49.6236 54.6732 50.9102 53.11 52.1074C52.7819 52.3509 52.462 52.5944 52.138 52.8339V43.8971C52.138 43.5116 52.4134 43.2072 52.7455 43.2072H61.8212L61.8253 43.2031Z" fill="url(#paint5_linear_76_2730)"/>
<path d="M50.1455 43.8929V52.8256C49.8134 52.5862 49.4935 52.3508 49.1654 52.1073C47.6184 50.9181 46.1118 49.6357 44.6903 48.2517C43.1311 46.7257 41.6529 45.0739 40.4177 43.207H49.5339C49.8701 43.207 50.1414 43.5114 50.1414 43.897L50.1455 43.8929Z" fill="url(#paint6_linear_76_2730)"/>
<path d="M63.0889 41.0398C62.9755 41.267 62.7406 41.4091 62.4854 41.4091H52.7455C52.4134 41.4091 52.138 41.0966 52.138 40.7191V36.1047C52.138 33.9415 53.5231 31.9853 55.5926 31.3765C56.6739 31.06 57.8321 31.0072 58.9823 31.2426C60.3471 31.5226 61.6633 32.1963 62.6636 33.2921C63.4938 34.2012 64.2876 35.3498 64.2876 37.1761C64.2876 38.9983 63.3116 40.5812 63.0889 41.0357V41.0398Z" fill="url(#paint7_linear_76_2730)"/>
<path d="M39.1906 41.0398C39.304 41.267 39.5389 41.4091 39.794 41.4091H49.5339C49.866 41.4091 50.1414 41.0966 50.1414 40.7191V36.1047C50.1414 33.9415 48.7564 31.9853 46.6869 31.3765C45.6056 31.06 44.4473 31.0072 43.2972 31.2426C41.9323 31.5226 40.6161 32.1963 39.6158 33.2921C38.7856 34.2012 37.9918 35.3498 37.9918 37.1761C37.9918 39.0024 38.9678 40.5812 39.1906 41.0357V41.0398Z" fill="url(#paint8_linear_76_2730)"/>
<path d="M101.996 39.5584C101.915 39.5422 101.83 39.5178 101.745 39.5016C101.729 39.4975 101.708 39.4935 101.688 39.4935C101.583 39.4732 101.482 39.4488 101.376 39.4245C99.9103 39.1039 98.4442 38.7386 96.9701 38.3287C94.8439 37.7402 92.7015 37.0584 90.5753 36.2873C90.5389 36.2792 90.5065 36.2629 90.47 36.2467C85.6952 34.5218 80.9245 32.3952 76.1537 29.9601C67.7665 25.6744 59.3751 20.4389 50.9959 14.8261C42.6168 20.4389 34.2295 25.6744 25.8422 29.9601C21.0715 32.3871 16.3088 34.5218 11.534 36.2467C11.4976 36.2589 11.4652 36.267 11.4206 36.2873C9.2904 37.0543 7.15207 37.7362 5.02184 38.3287C3.80283 38.6777 2.57977 38.9862 1.35671 39.2662C1.32026 39.2703 1.29191 39.2784 1.25546 39.2865C0.838323 39.3758 0.413087 39.4691 0 39.5544C17.0013 34.2256 33.9946 23.9008 51 8.58008C67.9973 23.9008 84.9946 34.2215 101.996 39.5544V39.5584Z" fill="url(#paint9_radial_76_2730)"/>
<path d="M51 0C33.9986 19.2493 17.0013 32.4353 0 39.558C17.0013 34.2292 33.9986 23.9044 51 8.58773C68.0014 23.9044 84.9986 34.2292 102 39.558C84.9986 32.4353 68.0014 19.2493 51 0Z" fill="url(#paint10_radial_76_2730)"/>
<path d="M101.996 39.5584C99.4 39.2905 96.7959 38.8765 94.204 38.3286C93.0012 38.077 91.7903 37.801 90.5794 37.4967C90.5632 37.4967 90.551 37.4926 90.5267 37.4845C83.2855 35.6703 76.0484 32.9796 68.8032 29.9641C62.8742 27.4844 56.933 24.7936 51 22.1922C45.071 24.7936 39.1298 27.4844 33.1968 29.9641C25.9515 32.9755 18.7104 35.6663 11.4692 37.4845C11.4571 37.4926 11.4409 37.4967 11.4247 37.4967C10.2138 37.801 9.00285 38.077 7.80003 38.3286C5.20002 38.8765 2.6 39.2864 0.00808716 39.5584C0.425224 39.4731 0.85046 39.3798 1.26355 39.2905C1.3 39.2824 1.32834 39.2743 1.36479 39.2702C2.58785 38.9861 3.81091 38.6817 5.02992 38.3327C7.16016 37.7442 9.29849 37.0624 11.4287 36.2913C11.4733 36.2751 11.5057 36.2669 11.5421 36.2507C16.3169 34.5259 21.0796 32.3911 25.8503 29.9641C34.2376 25.6784 42.6289 20.4429 51.004 14.8301C59.3873 20.4429 67.7786 25.6784 76.1618 29.9641C80.9326 32.3992 85.7033 34.5259 90.4781 36.2507C90.5146 36.2629 90.547 36.2791 90.5834 36.2913C92.7096 37.0583 94.852 37.7402 96.9781 38.3327C98.4523 38.7426 99.9184 39.1038 101.384 39.4285C101.482 39.4488 101.575 39.4731 101.672 39.4934C101.68 39.4934 101.688 39.4934 101.696 39.4975C101.716 39.4975 101.737 39.5015 101.753 39.5056C101.838 39.5218 101.923 39.5462 102.004 39.5624L101.996 39.5584Z" fill="url(#paint11_radial_76_2730)"/>
<path d="M61.0599 78.2845C66.3004 78.2236 70.0668 76.7909 72.7113 75.0377C71.8244 76.1335 70.7917 77.1806 69.5929 78.1749C64.972 81.1497 58.3869 83.0856 49.5096 80.7155C39.7819 78.1181 35.6105 73.2276 18.7347 76.6286C16.5316 77.071 14.0854 78.256 11.6393 79.7212C9.22964 81.1579 2.60406 83.9136 2.39346 83.9988C2.59596 83.7553 9.17699 76.0645 19.6783 72.4403C23.8659 70.9954 28.8715 70.3988 34.0027 71.1415C43.1473 72.4605 50.6274 78.4143 61.0558 78.2885L61.0599 78.2845Z" fill="url(#paint12_linear_76_2730)"/>
<path d="M78.3609 68.54C78.2394 68.8444 77.6481 70.2121 76.2955 71.8355C77.5509 70.1431 78.2151 68.8322 78.3609 68.54Z" fill="url(#paint13_linear_76_2730)"/>
<path d="M86.8008 56.9528C81.2444 57.3383 75.7892 48.6045 75.7892 48.6045C75.7892 48.6045 81.6858 63.9658 72.7154 75.0373C71.8285 76.1331 70.7957 77.1802 69.597 78.1745C69.5848 78.1827 69.5686 78.1948 69.5524 78.2111C95.2286 65.4959 99.4648 51.2019 99.5903 50.7555C99.4081 50.9259 93.556 56.482 86.8008 56.9528Z" fill="url(#paint14_linear_76_2730)"/>
<path d="M89.139 52.7472C91.6933 52.5952 93.6455 50.4748 93.4995 48.0114C93.3534 45.5479 91.1644 43.6741 88.6102 43.8262C86.0559 43.9783 84.1037 46.0986 84.2497 48.5621C84.3957 51.0256 86.5848 52.8993 89.139 52.7472Z" fill="url(#paint15_linear_76_2730)"/>
<path d="M62.7729 77.5056C62.7932 77.4813 62.8175 77.4569 62.8377 77.4326C59.3508 82.2134 52.6321 88.1064 41.9121 84.7216C32.3058 81.6858 25.0403 74.409 2.40155 83.9992C2.82274 83.6989 17.544 73.3213 29.2441 75.2653C36.7566 76.5154 39.8102 81.9902 48.3959 81.7792C56.1474 81.5966 61.4284 77.2175 63.996 74.4658C63.7044 75.4683 63.3035 76.4829 62.7729 77.5056Z" fill="url(#paint16_linear_76_2730)"/>
<path d="M62.8499 77.4203C62.8499 77.4203 62.8458 77.4285 62.8418 77.4325C62.8215 77.4569 62.7972 77.4812 62.777 77.5056C63.3035 76.4869 63.7085 75.4682 64.0001 74.4658C67.0982 63.865 58.0953 54.5265 57.8524 54.2789C58.0751 54.4291 64.6521 58.9299 68.4954 57.0265C73.3107 54.6401 75.7811 48.7432 75.7811 48.7432C75.7811 48.7432 77.5509 60.3869 62.8499 77.4163V77.4203Z" fill="url(#paint17_linear_76_2730)"/>
<path d="M67.4388 53.6667C69.4461 53.5472 70.9801 51.8796 70.8653 49.9419C70.7504 48.0042 69.0301 46.5303 67.0228 46.6498C65.0156 46.7693 63.4815 48.437 63.5964 50.3747C63.7113 52.3123 65.4316 53.7862 67.4388 53.6667Z" fill="url(#paint18_linear_76_2730)"/>
<path d="M70.4353 45.3329C70.4353 45.3329 77.6967 53.4945 73.0151 61.5263C83.812 50.2275 83.002 42.1064 83.002 42.1064C83.002 42.1064 81.0905 46.0959 77.6805 47.5813C74.9185 48.7867 70.4353 45.3329 70.4353 45.3329Z" fill="url(#paint19_radial_76_2730)"/>
<path d="M77.2 45.2155C78.5866 45.1329 79.6463 43.9813 79.5669 42.6433C79.4876 41.3053 78.2993 40.2875 76.9128 40.3701C75.5262 40.4526 74.4665 41.6042 74.5459 42.9422C74.6252 44.2802 75.8135 45.298 77.2 45.2155Z" fill="url(#paint20_linear_76_2730)"/>
<path d="M60.5293 90.5654H54.8474V93.5606H60.5293V90.5654Z" fill="url(#paint21_linear_76_2730)"/>
<path d="M60.5293 93.5605H54.8474V96.5557H60.5293V93.5605Z" fill="url(#paint22_linear_76_2730)"/>
<path d="M12.2104 89.2627V94.4778L7.94989 89.2627H6.30969V97.8464H8.26578V92.6312L12.5424 97.8464H14.1664V89.2627H12.2104Z" fill="#00143D"/>
<path d="M35.9547 89.2627L33.9581 95.3504L32.0021 89.2627H30.1634L28.1425 95.3017L26.2026 89.2627H24.1534L26.964 97.8464H29.0862L31.0341 92.0387L32.9173 97.8464H35.0476L37.8501 89.2627H35.9507H35.9547Z" fill="#00143D"/>
<path d="M55.2807 97.4241C54.5679 97.0385 54.005 96.5109 53.6041 95.8331C53.2031 95.1554 52.9966 94.4005 52.9966 93.5563C52.9966 92.7122 53.1991 91.9532 53.6041 91.2795C54.009 90.6058 54.5679 90.0742 55.2807 89.6886C55.9935 89.3031 56.7994 89.1123 57.6863 89.1123C58.5733 89.1123 59.3751 89.3031 60.0879 89.6886C60.7966 90.0742 61.3555 90.6018 61.7645 91.2795C62.1736 91.9532 62.3761 92.7122 62.3761 93.5563C62.3761 94.4005 62.1736 95.1594 61.7645 95.8331C61.3555 96.5068 60.7966 97.0385 60.0879 97.4241C59.3751 97.8096 58.5773 98.0004 57.6863 98.0004C56.7954 98.0004 55.9935 97.8096 55.2807 97.4241ZM59.0592 95.9549C59.4683 95.7236 59.7882 95.3948 60.0191 94.9809C60.2539 94.5628 60.3673 94.088 60.3673 93.5563C60.3673 93.0247 60.2499 92.5498 60.0191 92.1318C59.7882 91.7138 59.4642 91.3891 59.0592 91.1578C58.6542 90.9264 58.1926 90.8087 57.6863 90.8087C57.1801 90.8087 56.7225 90.9264 56.3134 91.1578C55.9044 91.3932 55.5844 91.7178 55.3536 92.1318C55.1228 92.5498 55.0053 93.0247 55.0053 93.5563C55.0053 94.088 55.1228 94.5628 55.3536 94.9809C55.5885 95.3989 55.9084 95.7236 56.3134 95.9549C56.7225 96.1903 57.1801 96.3039 57.6863 96.3039C58.1926 96.3039 58.6502 96.1862 59.0592 95.9549Z" fill="#00143D"/>
<path d="M49.0925 89.2627V92.6515H45.1965V89.2627H43.2162V97.8464H45.1965V94.3317H49.0925V97.8464H51.0729V89.2627H49.0925Z" fill="#00143D"/>
<path d="M73.6793 89.2627H72.0553L68.8964 94.6037L65.6889 89.2627H64.0487V97.8464H65.9076V92.8057L68.4185 96.9413H69.3054L71.8325 92.6962L71.8406 97.8464H73.6995L73.6752 89.2627H73.6793Z" fill="#00143D"/>
<path d="M78.0167 96.2634V94.2707L81.5563 94.3316V92.7853L78.0167 92.7244V90.8616H82.5161V89.2666H76.0484V97.8503H82.5161V96.2634H78.0207H78.0167Z" fill="#00143D"/>
<path d="M18.2811 96.2634V94.2707L21.8207 94.3316V92.7853L18.2811 92.7244V90.8616H22.7805V89.2666H16.3129V97.8503H22.7805V96.2634H18.2852H18.2811Z" fill="#00143D"/>
<path d="M87.0033 94.1407C86.5821 93.7186 86.3675 93.118 86.3675 92.3347V89.3477H87.5987V92.286C87.5987 93.2397 87.9955 93.7186 88.7853 93.7186C89.17 93.7186 89.4656 93.605 89.6681 93.3737C89.8706 93.1423 89.9719 92.7811 89.9719 92.2901V89.3517H91.1868V92.3388C91.1868 93.122 90.9762 93.7227 90.551 94.1448C90.1298 94.5669 89.5385 94.7779 88.7772 94.7779C88.0158 94.7779 87.4245 94.5669 87.0033 94.1448V94.1407Z" fill="#00143D"/>
<path d="M95.9819 93.5399H93.5115L93.0417 94.6803H91.7822L94.1514 89.3516H95.3663L97.7436 94.6803H96.4517L95.9819 93.5399ZM95.5931 92.6024L94.7507 90.561L93.9084 92.6024H95.5972H95.5931Z" fill="#00143D"/>
</g>
<defs>
<linearGradient id="paint0_linear_76_2730" x1="31.1468" y1="12.6049" x2="28.41" y2="20.6873" gradientUnits="userSpaceOnUse">
<stop stop-color="#FFDE00"/>
<stop offset="0.64" stop-color="#F5BD24"/>
<stop offset="1" stop-color="#F1B034"/>
</linearGradient>
<linearGradient id="paint1_linear_76_2730" x1="19.8577" y1="12.3283" x2="24.9734" y2="19.1521" gradientUnits="userSpaceOnUse">
<stop stop-color="#F1B034"/>
<stop offset="0.36" stop-color="#F5BD24"/>
<stop offset="1" stop-color="#FFEF26"/>
</linearGradient>
<linearGradient id="paint2_linear_76_2730" x1="13.199" y1="21.3812" x2="21.7049" y2="21.0374" gradientUnits="userSpaceOnUse">
<stop stop-color="#FFDE00"/>
<stop offset="0.64" stop-color="#F5BD24"/>
<stop offset="1" stop-color="#F1B034"/>
</linearGradient>
<linearGradient id="paint3_linear_76_2730" x1="16.518" y1="31.6342" x2="21.4426" y2="24.6756" gradientUnits="userSpaceOnUse">
<stop stop-color="#F1B034"/>
<stop offset="0.36" stop-color="#F5BD24"/>
<stop offset="1" stop-color="#FFEF26"/>
</linearGradient>
<linearGradient id="paint4_linear_76_2730" x1="22.5815" y1="27.0015" x2="27.9398" y2="19.4252" gradientUnits="userSpaceOnUse">
<stop stop-color="#F1B034"/>
<stop offset="0.36" stop-color="#F5BD24"/>
<stop offset="1" stop-color="#FFEF26"/>
</linearGradient>
<linearGradient id="paint5_linear_76_2730" x1="56.9817" y1="52.8298" x2="56.9817" y2="43.2031" gradientUnits="userSpaceOnUse">
<stop stop-color="white"/>
<stop offset="1" stop-color="#C6C6C6"/>
</linearGradient>
<linearGradient id="paint6_linear_76_2730" x1="45.2816" y1="52.8256" x2="45.2816" y2="0.00049926" gradientUnits="userSpaceOnUse">
<stop stop-color="white"/>
<stop offset="1" stop-color="#C6C6C6"/>
</linearGradient>
<linearGradient id="paint7_linear_76_2730" x1="58.2128" y1="41.4091" x2="58.2128" y2="31.1006" gradientUnits="userSpaceOnUse">
<stop stop-color="white"/>
<stop offset="1" stop-color="#C6C6C6"/>
</linearGradient>
<linearGradient id="paint8_linear_76_2730" x1="44.0666" y1="41.4091" x2="44.0666" y2="31.1006" gradientUnits="userSpaceOnUse">
<stop stop-color="white"/>
<stop offset="1" stop-color="#C6C6C6"/>
</linearGradient>
<radialGradient id="paint9_radial_76_2730" cx="0" cy="0" r="1" gradientUnits="userSpaceOnUse" gradientTransform="translate(51 24.0713) scale(37.68 37.7601)">
<stop offset="0.23" stop-color="#51CE4A"/>
<stop offset="0.93" stop-color="#006633"/>
</radialGradient>
<radialGradient id="paint10_radial_76_2730" cx="0" cy="0" r="1" gradientUnits="userSpaceOnUse" gradientTransform="translate(51.3233 19.7358) scale(38.4101 42.2934)">
<stop stop-color="white"/>
<stop offset="1" stop-color="#C6C6C6"/>
</radialGradient>
<radialGradient id="paint11_radial_76_2730" cx="0" cy="0" r="1" gradientUnits="userSpaceOnUse" gradientTransform="translate(51 27.2287) scale(37.1008 82.5389)">
<stop stop-color="#E30613"/>
<stop offset="1" stop-color="#7F000F"/>
</radialGradient>
<linearGradient id="paint12_linear_76_2730" x1="2.39751" y1="77.4119" x2="72.7113" y2="77.4119" gradientUnits="userSpaceOnUse">
<stop stop-color="#1D71B8"/>
<stop offset="0.76" stop-color="#36A9E1"/>
</linearGradient>
<linearGradient id="paint13_linear_76_2730" x1="76.2955" y1="70.1878" x2="78.3609" y2="70.1878" gradientUnits="userSpaceOnUse">
<stop stop-color="#1D71B8"/>
<stop offset="0.76" stop-color="#36A9E1"/>
</linearGradient>
<linearGradient id="paint14_linear_76_2730" x1="69.5484" y1="63.4098" x2="99.5863" y2="63.4098" gradientUnits="userSpaceOnUse">
<stop stop-color="#FFDE00"/>
<stop offset="0.64" stop-color="#F5BD24"/>
<stop offset="1" stop-color="#F1B034"/>
</linearGradient>
<linearGradient id="paint15_linear_76_2730" x1="87.8764" y1="52.6579" x2="89.8826" y2="43.9169" gradientUnits="userSpaceOnUse">
<stop stop-color="#FFDE00"/>
<stop offset="0.64" stop-color="#F5BD24"/>
<stop offset="1" stop-color="#F1B034"/>
</linearGradient>
<linearGradient id="paint16_linear_76_2730" x1="2.40155" y1="80.0949" x2="63.996" y2="80.0949" gradientUnits="userSpaceOnUse">
<stop stop-color="#FFDE00"/>
<stop offset="0.64" stop-color="#F5BD24"/>
<stop offset="1" stop-color="#F1B034"/>
</linearGradient>
<linearGradient id="paint17_linear_76_2730" x1="57.8483" y1="63.1264" x2="75.8459" y2="63.1264" gradientUnits="userSpaceOnUse">
<stop stop-color="#1D71B8"/>
<stop offset="0.76" stop-color="#36A9E1"/>
</linearGradient>
<linearGradient id="paint18_linear_76_2730" x1="67.8487" y1="53.6217" x2="66.6044" y2="46.6997" gradientUnits="userSpaceOnUse">
<stop stop-color="#1D71B8"/>
<stop offset="0.76" stop-color="#36A9E1"/>
</linearGradient>
<radialGradient id="paint19_radial_76_2730" cx="0" cy="0" r="1" gradientUnits="userSpaceOnUse" gradientTransform="translate(77.645 51.8445) rotate(172.795) scale(8.02808 7.7352)">
<stop stop-color="white"/>
<stop offset="0.77" stop-color="#C6C6C6"/>
</radialGradient>
<linearGradient id="paint20_linear_76_2730" x1="79.5498" y1="42.4678" x2="74.5608" y2="43.1091" gradientUnits="userSpaceOnUse">
<stop stop-color="white"/>
<stop offset="1" stop-color="#C6C6C6"/>
</linearGradient>
<linearGradient id="paint21_linear_76_2730" x1="57.6904" y1="93.5606" x2="57.6904" y2="90.5675" gradientUnits="userSpaceOnUse">
<stop stop-color="#1D71B8"/>
<stop offset="1" stop-color="#36A9E1"/>
</linearGradient>
<linearGradient id="paint22_linear_76_2730" x1="57.6904" y1="96.5557" x2="57.6904" y2="93.5605" gradientUnits="userSpaceOnUse">
<stop stop-color="#F1B034"/>
<stop offset="0.26" stop-color="#F1B232"/>
<stop offset="0.45" stop-color="#F5C120"/>
<stop offset="0.73" stop-color="#FFDE00"/>
<stop offset="0.88" stop-color="#FFDE01"/>
<stop offset="0.93" stop-color="#FFE108"/>
<stop offset="0.97" stop-color="#FFE714"/>
<stop offset="1" stop-color="#FFEF26"/>
</linearGradient>
<clipPath id="clip0_76_2730">
<rect width="102" height="98" fill="white"/>
</clipPath>
</defs>
</svg>
