<svg width="319" height="306" viewBox="0 0 319 306" fill="none" xmlns="http://www.w3.org/2000/svg">
<g clip-path="url(#clip0_94_6250)">
<path d="M41.1265 148.505L36.946 142.467H32.3328V148.505H27.3174V126.832H36.6983C38.6188 126.832 40.2857 127.153 41.6991 127.791C43.1125 128.432 44.2024 129.338 44.966 130.516C45.7295 131.693 46.1113 133.086 46.1113 134.695C46.1113 136.306 45.7251 137.693 44.9499 138.859C44.1762 140.028 43.0775 140.919 41.6525 141.537L46.5134 148.505H41.1265ZM39.8573 131.894C39.0719 131.244 37.9266 130.918 36.42 130.918H32.3328V138.474H36.42C37.9266 138.474 39.0719 138.142 39.8573 137.484C40.6413 136.822 41.0332 135.892 41.0332 134.695C41.0332 133.476 40.6413 132.544 39.8573 131.894Z" fill="#00143D"/>
<path d="M66.7326 141.537H54.13C54.3573 142.572 54.8935 143.385 55.7401 143.985C56.5867 144.583 57.6387 144.883 58.8991 144.883C59.7661 144.883 60.534 144.755 61.2057 144.495C61.876 144.239 62.5011 143.831 63.0781 143.271L65.6485 146.06C64.0792 147.855 61.7886 148.753 58.7753 148.753C56.8956 148.753 55.2345 148.386 53.789 147.654C52.345 146.92 51.2303 145.906 50.4449 144.603C49.661 143.303 49.269 141.829 49.269 140.176C49.269 138.544 49.6566 137.076 50.4304 135.764C51.2041 134.453 52.2678 133.433 53.62 132.698C54.9707 131.967 56.4832 131.6 58.156 131.6C59.7865 131.6 61.2626 131.949 62.5827 132.652C63.9043 133.354 64.9418 134.36 65.6951 135.671C66.4484 136.982 66.8258 138.504 66.8258 140.238C66.8258 140.299 66.7938 140.733 66.7326 141.537ZM55.4312 136.181C54.6881 136.802 54.2334 137.647 54.0688 138.722H62.2738C62.1077 137.667 61.6545 136.828 60.9114 136.198C60.1683 135.569 59.259 135.254 58.1866 135.254C57.0923 135.254 56.1743 135.563 55.4312 136.181Z" fill="#00143D"/>
<path d="M83.0184 133.442C84.4012 134.671 85.0933 136.522 85.0933 138.999V148.505H80.5719V146.43C79.6641 147.978 77.9709 148.753 75.4939 148.753C74.2145 148.753 73.1056 148.537 72.1658 148.103C71.226 147.669 70.5091 147.071 70.0136 146.308C69.5182 145.544 69.2705 144.676 69.2705 143.705C69.2705 142.158 69.8534 140.94 71.0205 140.051C72.1862 139.165 73.9872 138.722 76.4235 138.722H80.263C80.263 137.667 79.9424 136.857 79.3027 136.292C78.6631 135.723 77.7028 135.438 76.4235 135.438C75.5361 135.438 74.6633 135.578 73.8065 135.857C72.9497 136.134 72.2226 136.513 71.6237 136.988L69.8898 133.611C70.7976 132.972 71.8875 132.477 73.1566 132.124C74.4258 131.775 75.7314 131.6 77.0734 131.6C79.6539 131.6 81.6356 132.215 83.0184 133.442ZM78.9006 144.929C79.5403 144.548 79.9949 143.985 80.263 143.242V141.537H76.9495C74.9678 141.537 73.977 142.19 73.977 143.49C73.977 144.108 74.2203 144.6 74.7056 144.959C75.1893 145.32 75.8552 145.501 76.7018 145.501C77.528 145.501 78.2609 145.311 78.9006 144.929Z" fill="#00143D"/>
<path d="M90.2329 125.529H95.0632V148.505H90.2329V125.529Z" fill="#00143D"/>
<path d="M44.099 174.322V178.347H27.3174V156.674H43.6968V160.698H32.3022V165.405H42.365V169.307H32.3022V174.322H44.099Z" fill="#00143D"/>
<path d="M49.9505 178.085C48.6304 177.744 47.5769 177.315 46.793 176.8L48.4031 173.332C49.1462 173.807 50.0438 174.194 51.0973 174.491C52.1493 174.792 53.181 174.94 54.1937 174.94C56.2365 174.94 57.258 174.436 57.258 173.425C57.258 172.95 56.9797 172.609 56.423 172.402C55.865 172.195 55.0082 172.02 53.8527 171.874C52.4903 171.67 51.3654 171.432 50.478 171.163C49.5892 170.895 48.8213 170.42 48.1714 169.738C47.5201 169.059 47.1951 168.089 47.1951 166.83C47.1951 165.775 47.4997 164.842 48.1087 164.026C48.7178 163.21 49.6052 162.575 50.7724 162.123C51.938 161.669 53.315 161.442 54.9047 161.442C56.0821 161.442 57.2536 161.57 58.4193 161.829C59.585 162.086 60.5511 162.444 61.3146 162.896L59.7045 166.335C58.2386 165.507 56.6387 165.096 54.9047 165.096C53.8731 165.096 53.0994 165.239 52.5835 165.527C52.0663 165.819 51.8084 166.189 51.8084 166.643C51.8084 167.159 52.0881 167.521 52.6447 167.728C53.2028 167.934 54.0902 168.13 55.3084 168.316C56.6708 168.544 57.7855 168.785 58.6524 169.042C59.5194 169.301 60.2727 169.77 60.9124 170.452C61.5521 171.131 61.8727 172.081 61.8727 173.3C61.8727 174.331 61.5623 175.252 60.943 176.056C60.3237 176.861 59.4203 177.484 58.2342 177.93C57.0467 178.373 55.6377 178.595 54.0071 178.595C52.6243 178.595 51.2721 178.426 49.9505 178.085Z" fill="#00143D"/>
<path d="M76.3627 177.543C75.8877 177.892 75.3034 178.158 74.6127 178.332C73.9206 178.507 73.1935 178.595 72.4299 178.595C70.4482 178.595 68.9154 178.09 67.8313 177.076C66.7486 176.065 66.2066 174.579 66.2066 172.618V165.775H63.6362V162.059H66.2066V158.006H71.0369V162.059H75.1853V165.775H71.0369V172.556C71.0369 173.259 71.2162 173.801 71.579 174.183C71.9389 174.564 72.4503 174.757 73.1104 174.757C73.8739 174.757 74.5253 174.55 75.0615 174.136L76.3627 177.543Z" fill="#00143D"/>
<path d="M92.5247 163.283C93.9075 164.513 94.5997 166.364 94.5997 168.841V178.347H90.0782V176.272C89.1705 177.82 87.4773 178.595 85.0002 178.595C83.7209 178.595 82.612 178.379 81.6721 177.945C80.7323 177.511 80.0154 176.913 79.52 176.15C79.0246 175.386 78.7769 174.518 78.7769 173.547C78.7769 172 79.3597 170.782 80.5268 169.893C81.6925 169.007 83.4935 168.564 85.9298 168.564H89.7693C89.7693 167.509 89.4488 166.699 88.8091 166.133C88.1694 165.565 87.2092 165.28 85.9298 165.28C85.0424 165.28 84.1696 165.419 83.3129 165.699C82.4561 165.976 81.729 166.355 81.1301 166.83L79.3961 163.452C80.3039 162.814 81.3938 162.319 82.663 161.966C83.9321 161.616 85.2377 161.442 86.5797 161.442C89.1603 161.442 91.1419 162.056 92.5247 163.283ZM88.4069 174.771C89.0466 174.389 89.5012 173.827 89.7693 173.084V171.379H86.4559C84.4742 171.379 83.4833 172.032 83.4833 173.332C83.4833 173.949 83.7267 174.442 84.2119 174.8C84.6957 175.162 85.3616 175.342 86.2081 175.342C87.0343 175.342 87.7673 175.153 88.4069 174.771Z" fill="#00143D"/>
<path d="M110.484 177.543C110.009 177.892 109.424 178.158 108.734 178.332C108.042 178.507 107.315 178.595 106.551 178.595C104.569 178.595 103.036 178.09 101.952 177.076C100.87 176.065 100.328 174.579 100.328 172.618V165.775H97.7573V162.059H100.328V158.006H105.158V162.059H109.306V165.775H105.158V172.556C105.158 173.259 105.337 173.801 105.7 174.183C106.06 174.564 106.571 174.757 107.231 174.757C107.995 174.757 108.646 174.55 109.183 174.136L110.484 177.543Z" fill="#00143D"/>
<path d="M129.681 171.379H117.079C117.306 172.414 117.842 173.227 118.689 173.827C119.535 174.424 120.587 174.725 121.848 174.725C122.715 174.725 123.483 174.596 124.154 174.337C124.825 174.081 125.45 173.673 126.027 173.113L128.597 175.902C127.028 177.697 124.737 178.595 121.724 178.595C119.844 178.595 118.183 178.228 116.738 177.496C115.294 176.762 114.179 175.748 113.394 174.445C112.61 173.145 112.218 171.67 112.218 170.018C112.218 168.386 112.605 166.917 113.379 165.606C114.153 164.295 115.217 163.275 116.569 162.54C117.919 161.809 119.432 161.442 121.105 161.442C122.735 161.442 124.211 161.791 125.531 162.494C126.853 163.196 127.891 164.201 128.644 165.513C129.397 166.824 129.775 168.345 129.775 170.079C129.775 170.141 129.742 170.575 129.681 171.379ZM118.38 166.023C117.637 166.643 117.182 167.489 117.018 168.564H125.223C125.056 167.509 124.603 166.67 123.86 166.04C123.117 165.411 122.208 165.096 121.135 165.096C120.041 165.096 119.123 165.405 118.38 166.023Z" fill="#00143D"/>
<path d="M46.1419 198.883C46.8442 199.804 47.1954 200.932 47.1954 202.276C47.1954 204.173 46.4566 205.633 44.982 206.656C43.5059 207.679 41.3538 208.189 38.5255 208.189H27.3174V186.516H37.9062C40.548 186.516 42.5763 187.02 43.9912 188.031C45.4046 189.042 46.1113 190.415 46.1113 192.149C46.1113 193.204 45.8592 194.142 45.3536 194.967C44.8465 195.794 44.1398 196.444 43.232 196.919C44.4706 197.31 45.441 197.966 46.1419 198.883ZM32.3022 190.292V195.401H37.287C38.5255 195.401 39.4654 195.185 40.105 194.751C40.7447 194.317 41.0653 193.679 41.0653 192.831C41.0653 191.986 40.7447 191.35 40.105 190.928C39.4654 190.505 38.5255 190.292 37.287 190.292H32.3022ZM41.1425 203.762C41.8128 203.328 42.1479 202.657 42.1479 201.748C42.1479 199.953 40.8176 199.055 38.154 199.055H32.3022V204.412H38.154C39.4756 204.412 40.4708 204.193 41.1425 203.762Z" fill="#00143D"/>
<path d="M68.2186 191.531V208.189H63.636V206.207C62.9963 206.93 62.2328 207.48 61.3454 207.862C60.458 208.244 59.4978 208.436 58.4661 208.436C56.2775 208.436 54.5436 207.807 53.2642 206.548C51.9834 205.289 51.3438 203.421 51.3438 200.944V191.531H56.1741V200.23C56.1741 202.914 57.299 204.257 59.5488 204.257C60.7057 204.257 61.6339 203.878 62.3362 203.127C63.0371 202.372 63.3883 201.253 63.3883 199.766V191.531H68.2186Z" fill="#00143D"/>
<path d="M73.4834 185.213H78.3137V208.189H73.4834V185.213Z" fill="#00143D"/>
<path d="M100.762 191.531V205.403C100.762 208.457 99.9661 210.727 98.3764 212.213C96.7867 213.699 94.4655 214.443 91.4099 214.443C89.7998 214.443 88.2727 214.247 86.8273 213.854C85.3818 213.463 84.1855 212.895 83.2355 212.152L85.156 208.684C85.8568 209.261 86.7442 209.722 87.8181 210.063C88.892 210.403 89.9644 210.572 91.0383 210.572C92.7111 210.572 93.9438 210.197 94.7379 209.442C95.5335 208.69 95.9313 207.55 95.9313 206.02V205.309C94.6709 206.694 92.9165 207.384 90.6668 207.384C89.1397 207.384 87.7409 207.049 86.4717 206.376C85.2026 205.706 84.1957 204.762 83.4526 203.543C82.7095 202.325 82.3379 200.923 82.3379 199.332C82.3379 197.744 82.7095 196.339 83.4526 195.121C84.1957 193.903 85.2026 192.959 86.4717 192.289C87.7409 191.618 89.1397 191.283 90.6668 191.283C93.0827 191.283 94.9186 192.079 96.179 193.667V191.531H100.762ZM94.77 202.29C95.5845 201.535 95.9925 200.55 95.9925 199.332C95.9925 198.114 95.5845 197.129 94.77 196.377C93.954 195.622 92.9064 195.247 91.627 195.247C90.3462 195.247 89.2942 195.622 88.468 196.377C87.6433 197.129 87.2294 198.114 87.2294 199.332C87.2294 200.55 87.6433 201.535 88.468 202.29C89.2942 203.045 90.3462 203.421 91.627 203.421C92.9064 203.421 93.954 203.045 94.77 202.29Z" fill="#00143D"/>
<path d="M118.689 193.125C120.072 194.355 120.764 196.205 120.764 198.682V208.189H116.242V206.114C115.335 207.661 113.641 208.436 111.164 208.436C109.885 208.436 108.776 208.221 107.836 207.786C106.896 207.352 106.179 206.755 105.684 205.991C105.189 205.228 104.941 204.359 104.941 203.389C104.941 201.841 105.524 200.623 106.691 199.734C107.857 198.849 109.658 198.406 112.094 198.406H115.933C115.933 197.351 115.613 196.54 114.973 195.975C114.333 195.407 113.373 195.121 112.094 195.121C111.207 195.121 110.334 195.261 109.477 195.541C108.62 195.818 107.893 196.197 107.294 196.672L105.56 193.294C106.468 192.656 107.558 192.16 108.827 191.808C110.096 191.458 111.402 191.283 112.744 191.283C115.324 191.283 117.306 191.898 118.689 193.125ZM114.571 204.613C115.211 204.231 115.665 203.669 115.933 202.926V201.221H112.62C110.638 201.221 109.647 201.874 109.647 203.173C109.647 203.791 109.891 204.284 110.376 204.642C110.86 205.003 111.526 205.184 112.372 205.184C113.198 205.184 113.931 204.995 114.571 204.613Z" fill="#00143D"/>
<path d="M132.855 191.901C133.834 191.49 134.965 191.283 136.244 191.283V195.742C135.708 195.701 135.346 195.681 135.161 195.681C133.777 195.681 132.694 196.065 131.909 196.841C131.125 197.616 130.733 198.776 130.733 200.323V208.189H125.903V191.531H130.516V193.728C131.095 192.924 131.873 192.315 132.855 191.901Z" fill="#00143D"/>
<path d="M140.146 188.433C139.588 187.917 139.31 187.279 139.31 186.515C139.31 185.752 139.588 185.111 140.146 184.595C140.703 184.079 141.426 183.82 142.313 183.82C143.201 183.82 143.923 184.068 144.481 184.563C145.038 185.058 145.318 185.679 145.318 186.422C145.318 187.227 145.038 187.891 144.481 188.418C143.923 188.946 143.201 189.208 142.313 189.208C141.426 189.208 140.703 188.952 140.146 188.433ZM139.899 191.531H144.729V208.189H139.899V191.531Z" fill="#00143D"/>
<path d="M162.656 193.125C164.038 194.355 164.731 196.205 164.731 198.682V208.189H160.209V206.114C159.301 207.661 157.608 208.436 155.131 208.436C153.852 208.436 152.743 208.221 151.803 207.786C150.863 207.352 150.146 206.755 149.651 205.991C149.155 205.228 148.908 204.359 148.908 203.389C148.908 201.841 149.491 200.623 150.658 199.734C151.823 198.849 153.624 198.406 156.061 198.406H159.9C159.9 197.351 159.58 196.54 158.94 195.975C158.3 195.407 157.34 195.121 156.061 195.121C155.173 195.121 154.3 195.261 153.444 195.541C152.587 195.818 151.86 196.197 151.261 196.672L149.527 193.294C150.435 192.656 151.525 192.16 152.794 191.808C154.063 191.458 155.369 191.283 156.711 191.283C159.291 191.283 161.273 191.898 162.656 193.125ZM158.538 204.613C159.177 204.231 159.632 203.669 159.9 202.926V201.221H156.587C154.605 201.221 153.614 201.874 153.614 203.173C153.614 203.791 153.858 204.284 154.343 204.642C154.827 205.003 155.492 205.184 156.339 205.184C157.165 205.184 157.898 204.995 158.538 204.613Z" fill="#00143D"/>
<path d="M75.54 56.167C81.0716 52.0345 92.2365 46.0628 111.879 44.3372C99.8904 48.3224 95.7442 59.6319 94.3091 66.508C93.133 63.4361 91.0696 60.7948 88.3064 58.8613C86.997 57.9469 85.5792 57.2208 84.0762 56.7131C81.272 55.7658 78.3334 55.6159 75.54 56.167Z" fill="url(#paint0_linear_94_6250)"/>
<path d="M63.4947 65.8947C63.2265 58.9952 64.6369 46.4124 74.3512 29.2532C70.8375 41.3884 77.8032 51.2156 82.654 56.2959C79.4567 55.5232 76.1111 55.7256 72.9518 56.9057C71.4562 57.4659 70.0542 58.2222 68.7839 59.1725C66.4138 60.9454 64.6244 63.2812 63.4947 65.8947Z" fill="url(#paint1_linear_94_6250)"/>
<path d="M64.7677 81.1496C58.928 77.4654 49.3532 69.1804 40.7061 51.4595C48.7212 61.225 60.7654 61.0451 67.6993 59.9218C65.2525 62.1203 63.5257 64.9928 62.7102 68.2653C62.3256 69.8153 62.1555 71.3992 62.2198 72.9843C62.3399 75.9417 63.2526 78.739 64.7677 81.1496Z" fill="url(#paint2_linear_94_6250)"/>
<path d="M77.3124 88.8797C70.8323 91.2635 58.4281 93.8039 39.1089 89.8575C51.7361 89.4559 58.9349 79.798 62.2709 73.6165C62.5223 76.8962 63.7469 80.0161 65.8442 82.6572C66.8385 83.907 67.9905 85.0073 69.2863 85.9224C71.704 87.6299 74.4779 88.6114 77.3124 88.8797Z" fill="url(#paint3_linear_94_6250)"/>
<path d="M78.9612 86.9034C86.9627 86.9034 93.4493 80.4168 93.4493 72.4153C93.4493 64.4138 86.9627 57.9272 78.9612 57.9272C70.9597 57.9272 64.4731 64.4138 64.4731 72.4153C64.4731 80.4168 70.9597 86.9034 78.9612 86.9034Z" fill="url(#paint4_linear_94_6250)"/>
<path d="M193.302 134.791C189.478 140.597 184.89 145.755 180.046 150.475C175.611 154.815 170.938 158.831 166.06 162.562C165.041 163.323 164.038 164.085 163.019 164.827V136.942C163.019 135.743 163.885 134.791 164.922 134.791H193.302Z" fill="url(#paint5_linear_94_6250)"/>
<path d="M156.782 136.942V164.808C155.745 164.066 154.743 163.323 153.723 162.562C148.88 158.85 144.172 154.853 139.737 150.532C134.86 145.774 130.237 140.616 126.38 134.791H154.879C155.932 134.791 156.782 135.743 156.782 136.942Z" fill="url(#paint6_linear_94_6250)"/>
<path d="M197.253 128.04C196.902 128.753 196.166 129.195 195.372 129.195H164.922C163.885 129.195 163.019 128.224 163.019 127.044L163.019 112.653C163.019 105.907 167.348 99.7982 173.821 97.898C177.203 96.9052 180.827 96.7476 184.414 97.4842C188.679 98.3597 192.792 100.454 195.919 103.88C198.519 106.716 200.993 110.301 200.999 115.992C201.005 121.684 197.952 126.619 197.253 128.04Z" fill="url(#paint7_linear_94_6250)"/>
<path d="M122.539 128.04C122.889 128.753 123.626 129.195 124.42 129.195H154.869C155.906 129.195 156.773 128.224 156.773 127.044L156.773 112.653C156.773 105.907 152.443 99.7982 145.97 97.898C142.588 96.9052 138.964 96.7476 135.377 97.4842C131.112 98.3597 126.999 100.454 123.872 103.88C121.272 106.716 118.798 110.301 118.792 115.992C118.787 121.684 121.84 126.619 122.539 128.04Z" fill="url(#paint8_linear_94_6250)"/>
<path d="M318.897 123.414C318.64 123.359 318.382 123.292 318.112 123.238C318.057 123.224 318.003 123.21 317.935 123.21C317.61 123.143 317.285 123.075 316.96 122.994C312.382 121.992 307.791 120.854 303.186 119.581C296.536 117.739 289.846 115.612 283.196 113.215C283.087 113.188 282.979 113.134 282.871 113.093C267.945 107.716 253.02 101.08 238.108 93.4818C211.888 80.1141 185.653 63.7802 159.446 46.2681C133.252 63.7802 107.018 80.1141 80.797 93.4818C65.8853 101.053 50.9871 107.716 36.0619 113.093C35.9535 113.134 35.8451 113.161 35.7097 113.215C29.0462 115.612 22.3691 117.739 15.7055 119.581C11.8997 120.664 8.06688 121.626 4.24752 122.506C4.13914 122.52 4.04433 122.547 3.93595 122.574C2.6358 122.858 1.30845 123.143 0.00830078 123.414C53.1677 106.782 106.3 74.5747 159.459 26.7786C212.605 74.5747 265.751 106.782 318.897 123.414Z" fill="url(#paint9_radial_94_6250)"/>
<path d="M159.457 0C106.305 60.0611 53.1524 101.199 0 123.413C53.1524 106.788 106.305 74.5787 159.457 26.7852C212.61 74.5787 265.762 106.788 318.915 123.413C265.762 101.199 212.61 60.0611 159.457 0Z" fill="url(#paint10_radial_94_6250)"/>
<path d="M318.897 123.414C310.784 122.574 302.645 121.287 294.532 119.581C290.767 118.795 286.988 117.928 283.196 116.98C283.141 116.98 283.101 116.967 283.033 116.94C260.388 111.278 237.77 102.881 215.111 93.4817C196.569 85.7483 178.001 77.3511 159.446 69.2384C140.904 77.3511 122.336 85.7483 103.781 93.4817C81.1221 102.881 58.4904 111.278 35.8451 116.94C35.8046 116.967 35.7503 116.98 35.7097 116.98C31.9175 117.928 28.1387 118.795 24.3736 119.581C16.2473 121.287 8.12102 122.574 0.00830078 123.414C1.30845 123.143 2.6358 122.858 3.93595 122.574C4.04433 122.547 4.13914 122.52 4.24752 122.506C8.06688 121.626 11.8997 120.664 15.7055 119.581C22.3691 117.739 29.0462 115.612 35.7097 113.215C35.8451 113.161 35.9535 113.134 36.0619 113.093C50.9871 107.716 65.8853 101.053 80.797 93.4817C107.018 80.114 133.252 63.7802 159.446 46.2681C185.653 63.7802 211.888 80.114 238.108 93.4817C253.02 101.08 267.945 107.716 282.871 113.093C282.979 113.134 283.087 113.188 283.196 113.215C289.846 115.612 296.536 117.739 303.186 119.581C307.791 120.854 312.382 121.992 316.96 122.994C317.258 123.061 317.556 123.129 317.854 123.197C317.881 123.197 317.908 123.197 317.935 123.21C318.003 123.21 318.057 123.224 318.112 123.238C318.382 123.292 318.64 123.359 318.897 123.414Z" fill="url(#paint11_radial_94_6250)"/>
<path d="M190.907 244.249C207.295 244.059 219.065 239.59 227.34 234.118C224.564 237.531 221.34 240.809 217.589 243.91C203.137 253.188 182.551 259.228 154.799 251.833C124.38 243.734 111.337 228.47 58.5843 239.089C51.6905 240.47 44.0518 244.168 36.3996 248.732C28.8692 253.215 8.14723 261.815 7.49707 262.072C8.13367 261.314 28.7067 237.314 61.5369 226.005C74.6337 221.495 90.2768 219.64 106.326 221.956C134.917 226.073 158.307 244.642 190.907 244.249Z" fill="url(#paint12_linear_94_6250)"/>
<path d="M271.385 177.695C254.008 178.9 236.956 151.65 236.956 151.65C236.956 151.65 255.389 199.581 227.34 234.118C224.564 237.531 221.34 240.809 217.589 243.91C217.548 243.937 217.494 243.978 217.453 244.019C297.727 204.349 310.973 159.749 311.366 158.354C310.797 158.882 292.499 176.218 271.385 177.695Z" fill="url(#paint13_linear_94_6250)"/>
<path d="M278.704 164.587C286.69 164.112 292.793 157.496 292.337 149.808C291.881 142.119 285.037 136.271 277.051 136.745C269.066 137.22 262.962 143.836 263.419 151.524C263.875 159.213 270.719 165.061 278.704 164.587Z" fill="url(#paint14_linear_94_6250)"/>
<path d="M196.271 241.811C196.338 241.73 196.406 241.662 196.474 241.581C185.571 256.492 164.565 274.885 131.044 264.321C101.004 254.854 78.2907 232.141 7.51074 262.072C8.82453 261.138 54.8599 228.755 91.4417 234.822C114.927 238.723 124.475 255.802 151.319 255.152C175.549 254.583 192.072 240.917 200.09 232.33C199.183 235.459 197.923 238.628 196.271 241.811Z" fill="url(#paint15_linear_94_6250)"/>
<path d="M196.501 241.54C196.501 241.554 196.488 241.567 196.474 241.581C196.406 241.662 196.339 241.73 196.271 241.811C197.923 238.628 199.183 235.459 200.09 232.33C209.774 199.256 181.63 170.124 180.872 169.352C181.562 169.826 202.135 183.857 214.149 177.925C229.209 170.476 236.929 152.083 236.929 152.083C236.929 152.083 242.469 188.408 196.501 241.54Z" fill="url(#paint16_linear_94_6250)"/>
<path d="M210.847 167.432C217.125 167.059 221.923 161.858 221.564 155.814C221.205 149.77 215.825 145.172 209.548 145.545C203.27 145.918 198.472 151.12 198.83 157.163C199.189 163.207 204.569 167.805 210.847 167.432Z" fill="url(#paint17_linear_94_6250)"/>
<path d="M220.229 141.432C220.229 141.432 242.929 166.894 228.296 191.948C262.053 156.695 259.517 131.365 259.517 131.365C259.517 131.365 253.541 143.807 242.884 148.448C234.248 152.21 220.229 141.432 220.229 141.432Z" fill="url(#paint18_radial_94_6250)"/>
<path d="M241.372 141.087C245.709 140.829 249.023 137.236 248.775 133.061C248.527 128.886 244.811 125.71 240.474 125.968C236.138 126.225 232.823 129.819 233.071 133.994C233.319 138.169 237.036 141.344 241.372 141.087Z" fill="url(#paint19_linear_94_6250)"/>
<path d="M189.253 282.561H171.484V291.901H189.253V282.561Z" fill="url(#paint20_linear_94_6250)"/>
<path d="M189.253 291.901H171.484V301.242H189.253V291.901Z" fill="url(#paint21_linear_94_6250)"/>
<path d="M38.1752 278.495V294.761L24.8561 278.495H19.7314V305.282H25.8464V289.017L39.215 305.282H44.2902V278.495H38.1752Z" fill="#00143D"/>
<path d="M112.421 278.495L106.182 297.484L100.067 278.495H94.3235L88.0106 297.335L81.9451 278.495H75.5332L84.3218 305.282H90.9566L97.0468 287.16L102.939 305.282H109.599L118.362 278.495H112.421Z" fill="#00143D"/>
<path d="M172.842 303.954C170.607 302.754 168.859 301.101 167.595 298.994C166.331 296.886 165.699 294.52 165.699 291.89C165.699 289.26 166.331 286.891 167.595 284.784C168.859 282.679 170.607 281.024 172.842 279.824C175.076 278.624 177.585 278.024 180.368 278.024C183.151 278.024 185.653 278.624 187.875 279.824C190.096 281.024 191.845 282.679 193.122 284.784C194.398 286.891 195.037 289.26 195.037 291.89C195.037 294.52 194.398 296.886 193.122 298.994C191.845 301.101 190.096 302.754 187.875 303.954C185.653 305.154 183.151 305.754 180.368 305.754C177.585 305.754 175.076 305.154 172.842 303.954ZM184.657 299.376C185.934 298.65 186.937 297.634 187.664 296.332C188.392 295.03 188.756 293.55 188.756 291.89C188.756 290.23 188.392 288.749 187.664 287.445C186.937 286.144 185.934 285.13 184.657 284.402C183.381 283.673 181.951 283.31 180.368 283.31C178.784 283.31 177.355 283.673 176.078 284.402C174.801 285.13 173.8 286.144 173.071 287.445C172.344 288.749 171.98 290.23 171.98 291.89C171.98 293.55 172.344 295.03 173.071 296.332C173.8 297.634 174.801 298.65 176.078 299.376C177.355 300.104 178.784 300.467 180.368 300.467C181.951 300.467 183.381 300.104 184.657 299.376Z" fill="#00143D"/>
<path d="M153.492 278.495V289.067H141.312V278.495H135.123V305.282H141.312V294.315H153.492V305.282H159.681V278.495H153.492Z" fill="#00143D"/>
<path d="M230.362 278.495H225.287L215.409 295.157L205.382 278.495H200.258V305.282H206.076V289.562L213.923 302.46H216.696L224.594 289.215L224.618 305.282H230.436L230.362 278.495Z" fill="#00143D"/>
<path d="M243.929 300.331V294.117L254.992 294.303V289.475L243.929 289.289V283.471H257.991V278.495H237.764V305.282H257.982V300.331H243.929Z" fill="#00143D"/>
<path d="M57.1542 300.331V294.117L68.2179 294.303V289.475L57.1542 289.289V283.471H71.2161V278.495H50.9897V305.282H71.2077V300.331H57.1542Z" fill="#00143D"/>
<path d="M272.023 293.718C270.701 292.404 270.039 290.526 270.039 288.087V278.772H273.889V287.945C273.889 290.921 275.124 292.411 277.594 292.411C278.798 292.411 279.717 292.051 280.351 291.33C280.984 290.609 281.301 289.481 281.301 287.945V278.772H285.102V288.087C285.102 290.526 284.441 292.404 283.118 293.718C281.796 295.031 279.947 295.689 277.571 295.689C275.195 295.689 273.345 295.031 272.023 293.718Z" fill="#00143D"/>
<path d="M300.094 291.84H292.372L290.899 295.404H286.955L294.368 278.772H298.17L305.606 295.404H301.567L300.094 291.84ZM298.882 288.917L296.245 282.552L293.608 288.917H298.882Z" fill="#00143D"/>
</g>
<defs>
<linearGradient id="paint0_linear_94_6250" x1="97.364" y1="39.4339" x2="88.842" y2="64.6612" gradientUnits="userSpaceOnUse">
<stop stop-color="#FFDE00"/>
<stop offset="0.641862" stop-color="#F5BD24"/>
<stop offset="1" stop-color="#F1B034"/>
</linearGradient>
<linearGradient id="paint1_linear_94_6250" x1="62.0831" y1="38.4304" x2="78.0332" y2="59.7525" gradientUnits="userSpaceOnUse">
<stop stop-color="#F1B034"/>
<stop offset="0.358138" stop-color="#F5BD24"/>
<stop offset="1" stop-color="#FFEF26"/>
</linearGradient>
<linearGradient id="paint2_linear_94_6250" x1="41.3275" y1="66.7677" x2="67.9334" y2="65.6876" gradientUnits="userSpaceOnUse">
<stop stop-color="#FFDE00"/>
<stop offset="0.641862" stop-color="#F5BD24"/>
<stop offset="1" stop-color="#F1B034"/>
</linearGradient>
<linearGradient id="paint3_linear_94_6250" x1="51.6234" y1="98.6958" x2="66.9844" y2="76.9454" gradientUnits="userSpaceOnUse">
<stop stop-color="#F1B034"/>
<stop offset="0.358138" stop-color="#F5BD24"/>
<stop offset="1" stop-color="#FFEF26"/>
</linearGradient>
<linearGradient id="paint4_linear_94_6250" x1="70.6018" y1="84.2518" x2="87.3206" y2="60.5788" gradientUnits="userSpaceOnUse">
<stop stop-color="#F1B034"/>
<stop offset="0.358138" stop-color="#F5BD24"/>
<stop offset="1" stop-color="#FFEF26"/>
</linearGradient>
<linearGradient id="paint5_linear_94_6250" x1="178.16" y1="164.827" x2="178.16" y2="134.791" gradientUnits="userSpaceOnUse">
<stop stop-color="white"/>
<stop offset="1" stop-color="#C6C6C6"/>
</linearGradient>
<linearGradient id="paint6_linear_94_6250" x1="141.581" y1="164.808" x2="141.581" y2="5.12126e-05" gradientUnits="userSpaceOnUse">
<stop stop-color="white"/>
<stop offset="1" stop-color="#C6C6C6"/>
</linearGradient>
<linearGradient id="paint7_linear_94_6250" x1="182.009" y1="129.195" x2="182.009" y2="97.0249" gradientUnits="userSpaceOnUse">
<stop stop-color="white"/>
<stop offset="1" stop-color="#C6C6C6"/>
</linearGradient>
<linearGradient id="paint8_linear_94_6250" x1="137.783" y1="129.195" x2="137.783" y2="97.0249" gradientUnits="userSpaceOnUse">
<stop stop-color="white"/>
<stop offset="1" stop-color="#C6C6C6"/>
</linearGradient>
<radialGradient id="paint9_radial_94_6250" cx="0" cy="0" r="1" gradientUnits="userSpaceOnUse" gradientTransform="translate(159.453 75.0961) scale(117.807 117.807)">
<stop offset="0.226128" stop-color="#51CE4A"/>
<stop offset="0.927357" stop-color="#006633"/>
</radialGradient>
<radialGradient id="paint10_radial_94_6250" cx="0" cy="0" r="1" gradientUnits="userSpaceOnUse" gradientTransform="translate(159.457 61.7065) scale(119.417 132.467)">
<stop stop-color="white"/>
<stop offset="1" stop-color="#C6C6C6"/>
</radialGradient>
<radialGradient id="paint11_radial_94_6250" cx="0" cy="0" r="1" gradientUnits="userSpaceOnUse" gradientTransform="translate(159.453 84.8408) scale(115.996 257.345)">
<stop stop-color="#E30613"/>
<stop offset="1" stop-color="#7F000F"/>
</radialGradient>
<linearGradient id="paint12_linear_94_6250" x1="7.49707" y1="241.514" x2="227.34" y2="241.514" gradientUnits="userSpaceOnUse">
<stop stop-color="#1D71B8"/>
<stop offset="0.759776" stop-color="#36A9E1"/>
</linearGradient>
<linearGradient id="paint13_linear_94_6250" x1="217.453" y1="197.834" x2="311.366" y2="197.834" gradientUnits="userSpaceOnUse">
<stop stop-color="#FFDE00"/>
<stop offset="0.641862" stop-color="#F5BD24"/>
<stop offset="1" stop-color="#F1B034"/>
</linearGradient>
<linearGradient id="paint14_linear_94_6250" x1="274.754" y1="164.301" x2="281.001" y2="137.031" gradientUnits="userSpaceOnUse">
<stop stop-color="#FFDE00"/>
<stop offset="0.641862" stop-color="#F5BD24"/>
<stop offset="1" stop-color="#F1B034"/>
</linearGradient>
<linearGradient id="paint15_linear_94_6250" x1="7.51074" y1="249.888" x2="200.09" y2="249.888" gradientUnits="userSpaceOnUse">
<stop stop-color="#FFDE00"/>
<stop offset="0.641862" stop-color="#F5BD24"/>
<stop offset="1" stop-color="#F1B034"/>
</linearGradient>
<linearGradient id="paint16_linear_94_6250" x1="180.872" y1="196.947" x2="237.138" y2="196.947" gradientUnits="userSpaceOnUse">
<stop stop-color="#1D71B8"/>
<stop offset="0.759776" stop-color="#36A9E1"/>
</linearGradient>
<linearGradient id="paint17_linear_94_6250" x1="212.134" y1="167.285" x2="208.261" y2="145.692" gradientUnits="userSpaceOnUse">
<stop stop-color="#1D71B8"/>
<stop offset="0.759776" stop-color="#36A9E1"/>
</linearGradient>
<radialGradient id="paint18_radial_94_6250" cx="0" cy="0" r="1" gradientUnits="userSpaceOnUse" gradientTransform="translate(242.294 161.86) rotate(172.811) scale(25.0662 24.1408)">
<stop stop-color="white"/>
<stop offset="0.77095" stop-color="#C6C6C6"/>
</radialGradient>
<linearGradient id="paint19_linear_94_6250" x1="248.723" y1="132.523" x2="233.123" y2="134.532" gradientUnits="userSpaceOnUse">
<stop stop-color="white"/>
<stop offset="1" stop-color="#C6C6C6"/>
</linearGradient>
<linearGradient id="paint20_linear_94_6250" x1="180.368" y1="291.901" x2="180.368" y2="282.561" gradientUnits="userSpaceOnUse">
<stop stop-color="#1D71B8"/>
<stop offset="1" stop-color="#36A9E1"/>
</linearGradient>
<linearGradient id="paint21_linear_94_6250" x1="180.368" y1="301.242" x2="180.368" y2="291.901" gradientUnits="userSpaceOnUse">
<stop stop-color="#F1B034"/>
<stop offset="0.259777" stop-color="#F1B232"/>
<stop offset="0.453802" stop-color="#F5C120"/>
<stop offset="0.731844" stop-color="#FFDE00"/>
<stop offset="0.878316" stop-color="#FFDE01"/>
<stop offset="0.931072" stop-color="#FFE108"/>
<stop offset="0.968537" stop-color="#FFE714"/>
<stop offset="0.998766" stop-color="#FFEE25"/>
<stop offset="1" stop-color="#FFEF26"/>
</linearGradient>
<clipPath id="clip0_94_6250">
<rect width="318.915" height="305.754" fill="white"/>
</clipPath>
</defs>
</svg>
